<svg id="changeColor" fill="#DC7633" xmlns="http://www.w3.org/2000/svg" xmlns:xlink="http://www.w3.org/1999/xlink" width="200" zoomAndPan="magnify" viewBox="0 0 375 374.9999" height="200" preserveAspectRatio="xMidYMid meet" version="1.0"><defs><path id="pathAttribute" d="M 33 37.5 L 342 37.5 L 342 345.75 L 33 345.75 Z M 33 37.5 " fill="#03989e"></path><path id="pathAttribute" d="M 272 42 L 358.730469 42 L 358.730469 341 L 272 341 Z M 272 42 " fill="#03989e"></path></defs><g><path id="pathAttribute" d="M 187.355469 329.726562 C 109.519531 329.726562 46.421875 266.585938 46.421875 188.703125 C 46.421875 110.816406 109.519531 47.675781 187.355469 47.675781 C 265.1875 47.675781 328.28125 110.816406 328.28125 188.703125 C 328.28125 266.585938 265.1875 329.726562 187.355469 329.726562 Z M 187.355469 37.46875 C 102.300781 37.46875 33.351562 106.460938 33.351562 191.574219 C 33.351562 276.683594 102.300781 345.675781 187.355469 345.675781 C 272.40625 345.675781 341.355469 276.683594 341.355469 191.574219 C 341.355469 106.460938 272.40625 37.46875 187.355469 37.46875 " fill-opacity="1" fill-rule="nonzero" fill="#03989e"></path></g><path id="pathAttribute" d="M 26.582031 191.574219 C 26.582031 128.707031 56.914062 73.574219 102.472656 42.617188 C 50.828125 72.148438 16.019531 127.789062 16.019531 191.574219 C 16.019531 255.355469 50.828125 310.996094 102.472656 340.527344 C 56.914062 309.566406 26.582031 254.433594 26.582031 191.574219 " fill-opacity="1" fill-rule="nonzero" fill="#03989e"></path><g><path id="pathAttribute" d="M 272.234375 42.617188 C 317.796875 73.574219 348.121094 128.707031 348.121094 191.574219 C 348.121094 254.433594 317.796875 309.566406 272.234375 340.527344 C 323.878906 310.996094 358.6875 255.355469 358.6875 191.574219 C 358.6875 127.789062 323.878906 72.148438 272.234375 42.617188 " fill-opacity="1" fill-rule="nonzero" fill="#03989e"></path></g><g id="inner-icon" transform="translate(85, 75)"> <svg xmlns="http://www.w3.org/2000/svg" viewBox="0 0 24 24" id="IconChangeColor" height="199.8" width="199.8"><path class="uim-primary" d="M22,6.41668h-.791a.89762.89762,0,0,0-.709.69479v9.83021a.83938.83938,0,0,0,.709.64164H22V19.9167H14.83334V17.58332h1.50008V7.25h-.07353L12.75706,19.9167H10.04512L6.58751,7.25H6.5V17.58332H8V19.9167H2V17.58332h.76835A.841.841,0,0,0,3.5,16.94168V7.11139a.89588.89588,0,0,0-.73166-.69479H2V4.0833H9.50266L11.96593,13.25h.068L14.51976,4.0833H22V6.41668" data-name="Brand Logos" id="mainIconPathAttribute" fill="#03989e"></path></svg> </g></svg>